<?xml version="1.0" standalone="no"?>
<!DOCTYPE svg PUBLIC "-//W3C//DTD SVG 20010904//EN"
 "http://www.w3.org/TR/2001/REC-SVG-20010904/DTD/svg10.dtd">
<svg version="1.0" xmlns="http://www.w3.org/2000/svg"
 width="273.000000pt" height="273.000000pt" viewBox="0 0 273.000000 273.000000"
 preserveAspectRatio="xMidYMid meet">
<metadata>
Created by potrace 1.11, written by Peter Selinger 2001-2013
</metadata>
<g transform="translate(0.000000,273.000000) scale(0.100000,-0.100000)"
fill="#000000" stroke="none">
<path d="M200 1565 c-26 -32 13 -81 48 -59 21 14 28 54 10 65 -20 13 -44 11
-58 -6z"/>
<path d="M1323 1483 c4 -48 5 -132 2 -185 l-6 -98 29 0 c16 0 35 7 42 15 14
17 16 258 3 315 -8 31 -13 35 -44 38 l-35 3 9 -88z"/>
<path d="M196 1452 c-3 -4 -5 -51 -6 -103 -2 -151 -5 -139 39 -139 47 0 48 3
43 148 l-4 102 -33 0 c-19 0 -36 -4 -39 -8z"/>
<path d="M827 1431 c-20 -10 -37 -15 -37 -9 0 5 -17 8 -37 6 -34 -3 -38 -6
-41 -33 -2 -16 2 -63 9 -104 9 -57 10 -76 1 -79 -32 -10 0 -63 56 -92 13 -6
21 -14 18 -17 -3 -3 -12 0 -21 7 -9 7 -18 10 -22 7 -13 -13 123 -65 182 -70
l60 -5 -55 17 c-39 13 -49 19 -35 22 17 4 16 7 -12 22 -30 16 -61 61 -77 114
l-7 21 38 -19 c46 -23 55 -24 82 -1 45 36 44 158 -2 200 -34 31 -59 34 -100
13z m49 -77 c36 -55 -20 -110 -65 -65 -25 25 -27 54 -5 75 23 23 51 19 70 -10z"/>
<path d="M1022 1353 c2 -69 7 -94 23 -115 43 -59 128 -63 178 -8 25 28 27 36
27 120 l0 90 -40 0 -40 0 0 -74 c0 -86 -6 -106 -29 -106 -32 0 -41 22 -41 102
l0 78 -41 0 -41 0 4 -87z"/>
<path d="M1502 1424 c-15 -10 -22 -25 -22 -48 0 -36 19 -59 63 -75 15 -6 27
-17 27 -25 0 -21 -27 -27 -45 -9 -13 13 -21 13 -41 4 -21 -9 -23 -14 -14 -31
33 -62 188 -9 178 62 -2 16 -16 29 -45 43 -27 12 -43 26 -43 37 0 20 4 22 28
9 11 -6 26 -5 41 4 l25 13 -32 16 c-39 20 -91 21 -120 0z"/>
<path d="M2226 1261 c-4 -5 3 -7 14 -4 23 6 26 13 6 13 -8 0 -17 -4 -20 -9z"/>
<path d="M130 1253 c-85 -14 -130 -26 -130 -35 0 -5 8 -7 17 -4 9 4 37 9 61
12 46 5 92 20 92 29 0 3 -3 4 -7 4 -5 -1 -19 -4 -33 -6z"/>
<path d="M2108 1243 c-10 -2 -18 -8 -18 -13 0 -4 9 -6 20 -3 11 3 20 9 20 14
0 5 -1 8 -2 8 -2 -1 -11 -3 -20 -6z"/>
<path d="M1780 1164 c-91 -24 -185 -48 -210 -54 -25 -6 -76 -19 -115 -30 l-70
-20 58 6 c32 4 153 31 270 61 117 30 227 56 245 60 36 6 44 24 10 22 -13 -1
-97 -21 -188 -45z"/>
<path d="M1268 1043 c7 -3 16 -2 19 1 4 3 -2 6 -13 5 -11 0 -14 -3 -6 -6z"/>
</g>
</svg>
